<mxfile host="app.diagrams.net" agent="Mozilla/5.0 (Windows NT 10.0; Win64; x64) AppleWebKit/537.36 (KHTML, like Gecko) Chrome/129.0.0.0 Safari/537.36" version="24.7.17">
  <diagram name="Page-1" id="sCkqKzR6BmXqiOWri27q">
    <mxGraphModel dx="1050" dy="557" grid="1" gridSize="10" guides="1" tooltips="1" connect="1" arrows="1" fold="1" page="1" pageScale="1" pageWidth="850" pageHeight="1100" math="0" shadow="0">
      <root>
        <mxCell id="0" />
        <mxCell id="1" parent="0" />
        <mxCell id="ggqSAnSKCvxmYK7VeWLl-25" style="edgeStyle=orthogonalEdgeStyle;rounded=0;orthogonalLoop=1;jettySize=auto;html=1;entryX=0.5;entryY=1;entryDx=0;entryDy=0;" edge="1" parent="1" source="ggqSAnSKCvxmYK7VeWLl-1" target="ggqSAnSKCvxmYK7VeWLl-3">
          <mxGeometry relative="1" as="geometry" />
        </mxCell>
        <mxCell id="ggqSAnSKCvxmYK7VeWLl-1" value="" style="whiteSpace=wrap;html=1;aspect=fixed;" vertex="1" parent="1">
          <mxGeometry x="284.5" y="330" width="210" height="210" as="geometry" />
        </mxCell>
        <mxCell id="ggqSAnSKCvxmYK7VeWLl-2" value="" style="whiteSpace=wrap;html=1;aspect=fixed;" vertex="1" parent="1">
          <mxGeometry x="530" y="40" width="210" height="210" as="geometry" />
        </mxCell>
        <mxCell id="ggqSAnSKCvxmYK7VeWLl-3" value="" style="whiteSpace=wrap;html=1;aspect=fixed;" vertex="1" parent="1">
          <mxGeometry x="50" y="60" width="210" height="210" as="geometry" />
        </mxCell>
        <mxCell id="ggqSAnSKCvxmYK7VeWLl-4" value="" style="html=1;verticalLabelPosition=bottom;align=center;labelBackgroundColor=#ffffff;verticalAlign=top;strokeWidth=2;strokeColor=#0080F0;shadow=0;dashed=0;shape=mxgraph.ios7.icons.video_conversation;" vertex="1" parent="1">
          <mxGeometry x="90" y="105" width="50" height="25" as="geometry" />
        </mxCell>
        <mxCell id="ggqSAnSKCvxmYK7VeWLl-11" style="edgeStyle=orthogonalEdgeStyle;rounded=0;orthogonalLoop=1;jettySize=auto;html=1;entryX=0.5;entryY=0;entryDx=0;entryDy=0;" edge="1" parent="1" source="ggqSAnSKCvxmYK7VeWLl-5" target="ggqSAnSKCvxmYK7VeWLl-1">
          <mxGeometry relative="1" as="geometry" />
        </mxCell>
        <mxCell id="ggqSAnSKCvxmYK7VeWLl-5" value="Audio" style="html=1;whiteSpace=wrap;strokeColor=none;fillColor=#0079D6;labelPosition=center;verticalLabelPosition=middle;verticalAlign=top;align=center;fontSize=12;outlineConnect=0;spacingTop=-6;fontColor=#FFFFFF;sketch=0;shape=mxgraph.sitemap.audio;" vertex="1" parent="1">
          <mxGeometry x="160" y="97.5" width="50" height="40" as="geometry" />
        </mxCell>
        <mxCell id="ggqSAnSKCvxmYK7VeWLl-6" value="" style="shape=image;html=1;verticalAlign=top;verticalLabelPosition=bottom;labelBackgroundColor=#ffffff;imageAspect=0;aspect=fixed;image=https://cdn0.iconfinder.com/data/icons/icocentre-free-icons/147/f-server_128-128.png" vertex="1" parent="1">
          <mxGeometry x="360" y="440" width="59" height="59" as="geometry" />
        </mxCell>
        <mxCell id="ggqSAnSKCvxmYK7VeWLl-7" value="Kurento Server" style="text;html=1;align=center;verticalAlign=middle;whiteSpace=wrap;rounded=0;" vertex="1" parent="1">
          <mxGeometry x="350" y="499" width="91" height="30" as="geometry" />
        </mxCell>
        <mxCell id="ggqSAnSKCvxmYK7VeWLl-8" value="" style="image;sketch=0;aspect=fixed;html=1;points=[];align=center;fontSize=12;image=img/lib/mscae/VM_Linux.svg;" vertex="1" parent="1">
          <mxGeometry x="365" y="453" width="50" height="46" as="geometry" />
        </mxCell>
        <mxCell id="ggqSAnSKCvxmYK7VeWLl-9" value="" style="shape=mxgraph.cisco.misc.streamer;html=1;pointerEvents=1;dashed=0;fillColor=#036897;strokeColor=#ffffff;strokeWidth=2;verticalLabelPosition=bottom;verticalAlign=top;align=center;outlineConnect=0;" vertex="1" parent="1">
          <mxGeometry x="344" y="340" width="93" height="64" as="geometry" />
        </mxCell>
        <mxCell id="ggqSAnSKCvxmYK7VeWLl-10" value="GStreamer" style="text;html=1;align=center;verticalAlign=middle;whiteSpace=wrap;rounded=0;" vertex="1" parent="1">
          <mxGeometry x="344" y="410" width="91" height="30" as="geometry" />
        </mxCell>
        <mxCell id="ggqSAnSKCvxmYK7VeWLl-12" style="edgeStyle=orthogonalEdgeStyle;rounded=0;orthogonalLoop=1;jettySize=auto;html=1;entryX=0.3;entryY=-0.001;entryDx=0;entryDy=0;entryPerimeter=0;" edge="1" parent="1" source="ggqSAnSKCvxmYK7VeWLl-4" target="ggqSAnSKCvxmYK7VeWLl-1">
          <mxGeometry relative="1" as="geometry" />
        </mxCell>
        <mxCell id="ggqSAnSKCvxmYK7VeWLl-13" value="" style="aspect=fixed;sketch=0;html=1;dashed=0;whitespace=wrap;verticalLabelPosition=bottom;verticalAlign=top;fillColor=#2875E2;strokeColor=#ffffff;points=[[0.005,0.63,0],[0.1,0.2,0],[0.9,0.2,0],[0.5,0,0],[0.995,0.63,0],[0.72,0.99,0],[0.5,1,0],[0.28,0.99,0]];shape=mxgraph.kubernetes.icon2;kubernetesLabel=1;prIcon=node" vertex="1" parent="1">
          <mxGeometry x="604.87" y="53.44" width="79.75" height="76.56" as="geometry" />
        </mxCell>
        <mxCell id="ggqSAnSKCvxmYK7VeWLl-24" style="edgeStyle=orthogonalEdgeStyle;rounded=0;orthogonalLoop=1;jettySize=auto;html=1;entryX=0.75;entryY=0;entryDx=0;entryDy=0;" edge="1" parent="1" source="ggqSAnSKCvxmYK7VeWLl-14" target="ggqSAnSKCvxmYK7VeWLl-1">
          <mxGeometry relative="1" as="geometry" />
        </mxCell>
        <mxCell id="ggqSAnSKCvxmYK7VeWLl-14" value="Signalling Server" style="text;html=1;align=center;verticalAlign=middle;whiteSpace=wrap;rounded=0;" vertex="1" parent="1">
          <mxGeometry x="589.5" y="220" width="110.5" height="30" as="geometry" />
        </mxCell>
        <mxCell id="ggqSAnSKCvxmYK7VeWLl-17" value="Kurento Client" style="text;html=1;align=center;verticalAlign=middle;whiteSpace=wrap;rounded=0;" vertex="1" parent="1">
          <mxGeometry x="100" y="220" width="110" height="30" as="geometry" />
        </mxCell>
        <mxCell id="ggqSAnSKCvxmYK7VeWLl-20" style="edgeStyle=orthogonalEdgeStyle;rounded=0;orthogonalLoop=1;jettySize=auto;html=1;entryX=0.005;entryY=0.63;entryDx=0;entryDy=0;entryPerimeter=0;" edge="1" parent="1" source="ggqSAnSKCvxmYK7VeWLl-17" target="ggqSAnSKCvxmYK7VeWLl-13">
          <mxGeometry relative="1" as="geometry" />
        </mxCell>
        <mxCell id="ggqSAnSKCvxmYK7VeWLl-22" value="" style="edgeStyle=orthogonalEdgeStyle;rounded=0;orthogonalLoop=1;jettySize=auto;html=1;" edge="1" parent="1" source="ggqSAnSKCvxmYK7VeWLl-21" target="ggqSAnSKCvxmYK7VeWLl-13">
          <mxGeometry relative="1" as="geometry" />
        </mxCell>
        <mxCell id="ggqSAnSKCvxmYK7VeWLl-21" value="" style="verticalLabelPosition=bottom;aspect=fixed;html=1;shape=mxgraph.salesforce.web2;" vertex="1" parent="1">
          <mxGeometry x="615" y="160" width="60" height="60" as="geometry" />
        </mxCell>
      </root>
    </mxGraphModel>
  </diagram>
</mxfile>
